<svg class="svg-icon" style="width: 1em; height: 1em;vertical-align: middle;fill: white;overflow: hidden;" viewBox="0 0 1024 1024" version="1.1" xmlns="http://www.w3.org/2000/svg"><path d="M513.33 938.67H262.92a90.1 90.1 0 0 1-90-90V273.86a30 30 0 0 1 8.78-21.21l160-160a30 30 0 0 1 21.22-8.79h400.83a90.1 90.1 0 0 1 90 90v333.55a30 30 0 0 1-60 0V173.86a30 30 0 0 0-30-30H375.34L232.92 286.29v562.38a30 30 0 0 0 30 30h250.41a30 30 0 0 1 0 60zM740.41 661.5q25 0 25 25v90q0 25-25 25t-25-25v-90q0-25 25-25z m-25 185.01a25 25 0 1 0 50 0 25 25 0 1 0-50 0z m-32.75-504.18H341.33a30 30 0 0 1 0-60h341.33c16.57 0 18 13.44 18 30s-1.43 30-18 30z m60.75 619.5c-106.6 0-193.32-86.72-193.32-193.32s86.72-193.33 193.32-193.33 193.33 86.73 193.33 193.33S850 961.83 743.41 961.83z m0-336.65c-79 0-143.32 64.3-143.32 143.33s64.29 143.32 143.32 143.32 143.33-64.29 143.33-143.32-64.3-143.33-143.33-143.33z m-59.25-117.77H342.83a30 30 0 0 1 0-60h341.33c16.57 0 18 13.43 18 30s-1.43 30-18 30zM512 683.67H342.83a30 30 0 0 1 0-60H512a30 30 0 0 1 0 60z"  /></svg>