<svg xmlns="http://www.w3.org/2000/svg" viewBox="-10 0 55 65">
  <title>Play Framework</title>
  <g transform="translate(49.521161,-115.68272) translate(-572.79597,-387.51278)">
    <path fill="#92d13d" d="m 525.55251,507.1033 1.64042,-1.64042 c 2.51354,-2.48708 6.61458,-2.32833 8.91646,0.34396 l 22.70125,26.45833 c 1.98437,2.30188 1.95792,5.715 -0.0529,7.99042 l -22.62187,25.63813 c -2.32834,2.61937 -6.37646,2.75166 -8.86354,0.26458 l -1.64042,-1.64042 c -2.2225,-2.2225 -2.38125,-5.76791 -0.37042,-8.20208 l 13.54667,-16.24542 c 1.85208,-2.2225 1.87854,-5.42396 0.0794,-7.69937 l -13.75833,-17.19792 c -1.95792,-2.38125 -1.77271,-5.87375 0.42333,-8.06979 z"/>
    <path fill="#49691f" d="m 538.78168,540.1233 -13.54667,16.24542 c -2.01083,2.4077 -1.85208,5.97958 0.37042,8.20208 l 1.64042,1.64042 c 2.48708,2.48708 6.53521,2.35479 8.86354,-0.26459 l 4.89479,-5.55625 c 1.85208,-3.65125 2.88396,-7.77875 2.88396,-12.14437 0,-5.3975 -1.5875,-10.39813 -4.28625,-14.605 1.00542,2.06375 0.74083,4.63021 -0.82021,6.48229 z"/>
  </g>
</svg>
