<?xml version="1.0" encoding="UTF-8" standalone="no"?>
<svg
   width="16"
   height="16"
   viewBox="0 0 16 16"
   fill="none"
   version="1.1"
   id="svg4"
   sodipodi:docname="clean-dark.svg"
   inkscape:version="1.2.2 (1:1.2.2+202305151914+b0a8486541)"
   xmlns:inkscape="http://www.inkscape.org/namespaces/inkscape"
   xmlns:sodipodi="http://sodipodi.sourceforge.net/DTD/sodipodi-0.dtd"
   xmlns="http://www.w3.org/2000/svg"
   xmlns:svg="http://www.w3.org/2000/svg">
  <defs
     id="defs8" />
  <sodipodi:namedview
     id="namedview6"
     pagecolor="#ffffff"
     bordercolor="#000000"
     borderopacity="0.25"
     inkscape:showpageshadow="2"
     inkscape:pageopacity="0.0"
     inkscape:pagecheckerboard="0"
     inkscape:deskcolor="#d1d1d1"
     showgrid="false"
     inkscape:zoom="64.1875"
     inkscape:cx="7.9922103"
     inkscape:cy="7.9922103"
     inkscape:window-width="2560"
     inkscape:window-height="1403"
     inkscape:window-x="0"
     inkscape:window-y="0"
     inkscape:window-maximized="1"
     inkscape:current-layer="svg4" />
  <path
     fill-rule="evenodd"
     clip-rule="evenodd"
     d="M10 3H12H13V4H12V13L11 14H4L3 13V4H2V3H5V2C5 1.73478 5.10531 1.48038 5.29285 1.29285C5.48038 1.10531 5.73478 1 6 1H9C9.26522 1 9.51962 1.10531 9.70715 1.29285C9.89469 1.48038 10 1.73478 10 2V3ZM9 2H6V3H9V2ZM4 13H11V4H4V13ZM6 5H5V12H6V5ZM7 5H8V12H7V5ZM9 5H10V12H9V5Z"
     fill="#FFCC00"
     id="path2" />
  <path
     style="fill:#ff0000;stroke-width:0.0155794"
     d="M 3.5091857,13.495555 3.014659,13.000847 3.0107375,8.4984762 3.006816,3.9961052 2.5043817,3.9919945 2.0019474,3.9878838 V 3.49735 3.006816 h 1.5024177 1.5024177 l 0.00559,-0.6037001 C 5.0177433,1.8223573 5.0193047,1.7955675 5.0534581,1.69815 5.1088891,1.540041 5.198443,1.4027092 5.3232433,1.2844313 5.457246,1.157432 5.5837967,1.0860133 5.7502786,1.0434344 5.8663779,1.0137414 5.9279503,1.0126664 7.5000578,1.0128884 9.3098666,1.0131442 9.2260277,1.0086184 9.4488802,1.118131 9.6046557,1.194682 9.7934483,1.3801418 9.8727998,1.5345666 9.9838285,1.7506378 9.9837817,1.7502894 9.9904404,2.4109055 l 0.00601,0.5959104 h 1.4944746 1.494473 v 0.4907497 0.4907498 h -0.498539 -0.49854 v 4.5064204 4.5064202 l -0.494734,0.494554 -0.494734,0.494553 H 7.5012794 4.0037122 Z M 11.006816,8.4985394 V 3.9883155 H 7.5014606 3.9961052 V 8.4985394 13.008763 H 7.5014606 11.006816 Z M 9.0126582,2.5004869 V 1.9941577 H 7.5014606 5.9902629 V 2.5004869 3.006816 h 1.5111977 1.5111976 z"
     id="path252" />
  <path
     style="fill:#ff0000;stroke-width:0.0155794"
     d="M 5.0087634,8.4985394 V 5.0009737 H 5.4995131 5.9902629 V 8.4985394 11.996105 H 5.4995131 5.0087634 Z"
     id="path254" />
  <path
     style="fill:#ff0000;stroke-width:0.0155794"
     d="M 7.0029211,8.4985394 V 5.0009737 H 7.5014606 8 V 8.4985394 11.996105 H 7.5014606 7.0029211 Z"
     id="path256" />
  <path
     style="fill:#ff0000;stroke-width:0.0155794"
     d="M 9.0126582,8.4985394 V 5.0009737 H 9.503408 9.9941577 V 8.4985394 11.996105 H 9.503408 9.0126582 Z"
     id="path258" />
</svg>
