<?xml version="1.0" encoding="UTF-8" standalone="no"?>
<!DOCTYPE svg PUBLIC "-//W3C//DTD SVG 1.1//EN" "http://www.w3.org/Graphics/SVG/1.1/DTD/svg11.dtd">
<svg version="1.1" xmlns="http://www.w3.org/2000/svg" xmlns:xlink="http://www.w3.org/1999/xlink" preserveAspectRatio="xMidYMid meet" viewBox="0 0 640 640" width="640" height="640"><defs><path d="M133.82 400L260 320L133.82 240L133.82 290.72L0 290.72L0 349.41L133.82 349.42L133.82 400Z" id="lRbrYsgWC"></path><path d="M506.18 240L380 320L506.18 400L506.18 349.28L640 349.28L640 290.59L506.18 290.58L506.18 240Z" id="az89dfV5o"></path><path d="M237.36 133.82L317.36 260L397.36 133.82L346.64 133.82L346.64 0L287.94 0L287.94 133.82L237.36 133.82Z" id="d8LbeXVSO"></path><path d="M400 506.18L320 380L240 506.18L290.72 506.18L290.72 640L349.41 640L349.42 506.18L400 506.18Z" id="b3XRaElBW"></path></defs><g><g><g><use xlink:href="#lRbrYsgWC" opacity="1" fill="#eeeeee" fill-opacity="1"></use></g><g><use xlink:href="#az89dfV5o" opacity="1" fill="#eeeeee" fill-opacity="1"></use></g><g><use xlink:href="#d8LbeXVSO" opacity="1" fill="#eeeeee" fill-opacity="1"></use></g><g><use xlink:href="#b3XRaElBW" opacity="1" fill="#eeeeee" fill-opacity="1"></use></g></g></g></svg>