<?xml version="1.0" encoding="UTF-8"?>
<svg width="32px" height="23px" viewBox="0 0 32 23" version="1.1" xmlns="http://www.w3.org/2000/svg" xmlns:xlink="http://www.w3.org/1999/xlink">
    <!-- Generator: Sketch 53.2 (72643) - https://sketchapp.com -->
    <title>scalameta</title>
    <desc>Created with Sketch.</desc>
    <g id="Page-1" stroke="none" stroke-width="1" fill="none" fill-rule="evenodd">
        <g id="scalameta" fill="#FFFFFF">
            <path d="M18.5067766,6.61045423 C21.4504985,3.20168587 24.2164918,1.33278146 24.4990354,1.12378203 C24.7846688,0.912412371 25.008463,0.716048601 25.2782851,0.686273932 C25.3339603,0.680130215 25.5601585,0.65739106 25.8894963,0.624489954 C27.3856163,0.462034894 31.1705391,0.0511398485 31.463717,0.0201885125 C31.8298135,-0.018460972 32.1019335,0.38087187 31.9394641,0.704260677 C31.7770289,1.02761561 28.6488489,6.17155376 28.3274427,12.4449985 C28.0060364,18.7184772 29.9738478,20.9045272 30.3897449,21.9720457 C30.805642,23.0395641 25.2868596,23.5673785 23.9099678,21.9720457 C22.5330761,20.3767128 21.9776206,17.5743034 22.1344995,12.5421473 C22.1660179,11.5313551 22.3219952,10.4760186 22.551997,9.43316474 C20.125881,12.3972693 17.9121327,15.2765139 17.851164,15.3409661 C17.7664137,15.4306289 17.6807717,15.5275744 17.5338049,15.5444772 C17.5338049,15.5444772 16.636776,15.6481296 16.4420665,15.6708247 C16.2638178,15.691611 15.283885,15.8009319 14.2502628,15.9170349 C13.0083531,16.0586202 11.8439127,16.1925862 11.6453934,16.2196406 C11.6110868,16.2243111 11.5779014,16.226024 11.5459112,16.2251043 C11.1907817,16.2350465 10.9682605,15.9286132 10.9755541,15.6708247 C10.9825408,15.4238834 11.0043795,12.4595966 11.6136168,9.38801243 C9.17306642,12.3679611 6.9370939,15.2761866 6.87581565,15.3409661 C6.79106538,15.4306289 6.70542337,15.5275744 6.55845659,15.5444772 C6.55835922,15.5444884 5.66141708,15.6481308 5.46671811,15.6708247 C5.28846942,15.691611 4.30853667,15.8009319 3.27491442,15.9170349 C2.03300477,16.0586202 0.868564339,16.1925862 0.670045016,16.2196406 C0.635738456,16.2243111 0.602553084,16.226024 0.570562815,16.2251043 C0.240479782,16.2343453 0.0249595501,15.9702635 0.00205787781,15.7259661 L0.00205787781,15.5814619 C0.0143119092,14.9465583 0.0854901702,11.5663108 0.860158628,8.37907953 C1.68632797,4.97995729 3.57912969,1.36336819 3.70809003,1.10206922 C3.83705038,0.840736377 4.10114469,0.603419735 4.46048446,0.565786451 C4.81982422,0.528119293 9.17151554,0.0605655376 9.56957771,0.019443299 C9.96763987,-0.0216789396 10.2163001,0.39018704 10.0579807,0.704531664 C9.91726219,0.983960012 8.51785729,3.67787304 7.53523643,6.60604514 C10.4775352,3.20007434 13.2412653,1.33269133 13.523687,1.12378203 C13.8093205,0.912412371 14.0486174,0.712729013 14.3029368,0.686273932 C14.3035545,0.686209678 14.304196,0.686143085 14.3048612,0.686074165 C14.3042199,0.686138953 14.3035785,0.686205541 14.3029368,0.686273932 C14.3029368,0.686273932 15.2439014,0.585873343 15.4358328,0.565786451 C15.7951726,0.528119293 20.078268,0.0605655376 20.4763301,0.019443299 C20.8743923,-0.0216789396 21.1230525,0.39018704 20.9647331,0.704531664 C20.823944,0.984100256 19.4774743,3.68057778 18.5067766,6.61045423 Z" id="Path"></path>
        </g>
    </g>
</svg>